<svg width="104" height="91" viewBox="0 0 104 91" fill="none" xmlns="http://www.w3.org/2000/svg">
<path d="M59.3273 90.8649C58.7292 90.9069 58.131 90.9854 57.5328 90.9857C42.4823 90.9924 27.4317 91.021 12.3813 90.9714C8.24608 90.9578 4.93782 89.1558 2.64202 85.6787C1.39445 83.7891 0.828207 81.6524 0.827306 79.3934C0.818404 56.7995 0.810245 34.2056 0.833694 11.6117C0.837473 7.96456 2.26116 4.90466 5.1012 2.57135C6.9216 1.07574 9.0421 0.268134 11.3886 0.0869611C12.2662 0.0191914 13.1499 0.00837609 14.0308 0.0078543C23.1296 0.00249408 32.2284 0.0107953 41.3271 1.16124e-05C43.5081 -0.00256572 45.5756 0.423548 47.4198 1.61004C48.2656 2.15421 49.0701 2.79754 49.7839 3.50615C55.0542 8.73803 60.292 14.0026 65.5507 19.2461C67.4942 21.184 68.6774 23.4851 68.9841 26.2185C69.0412 26.7271 69.0355 27.2441 69.0366 27.7573C69.0416 30.1536 69.0315 32.55 69.0476 34.9462C69.0498 35.2709 68.949 35.3988 68.6444 35.4843C65.8874 36.2581 63.3223 37.4565 60.9207 39.0111C60.8256 39.0726 60.7207 39.1188 60.5554 39.2067V28.4231H60.0445C55.5543 28.4231 51.0642 28.4247 46.5741 28.4217C45.7551 28.4212 44.9429 28.3534 44.172 28.044C42.0162 27.1788 40.8805 25.5616 40.6748 23.2697C40.6419 22.9033 40.6422 22.5332 40.642 22.1648C40.6399 17.7935 40.6406 13.4222 40.6406 9.05087V8.51519H40.1962C30.9263 8.51519 21.6563 8.51418 12.3863 8.51703C11.5908 8.51727 10.8455 8.69774 10.2294 9.23998C9.52961 9.8558 9.39431 10.6989 9.31221 11.5607C9.30475 11.639 9.31079 11.7186 9.31079 11.7976C9.31077 34.2598 9.30786 56.722 9.32613 79.1842C9.32663 79.7987 9.45874 80.4538 9.69819 81.0185C10.145 82.072 11.1134 82.3903 12.1753 82.4772C12.3192 82.4889 12.4648 82.4802 12.6097 82.4802C25.4091 82.4803 38.2085 82.4817 51.008 82.4727C51.3331 82.4724 51.5248 82.5608 51.7077 82.8362C53.6847 85.8143 56.0973 88.3811 58.9936 90.4857C59.11 90.5703 59.2194 90.6645 59.3321 90.7542L59.3274 90.8649L59.3273 90.8649Z" fill="white"/>
<path d="M103.181 64.8334C103.008 70.4999 101.719 75.2602 98.9007 79.5656C96.0817 83.8715 92.2509 86.9539 87.5334 88.943C85.2563 89.9031 82.8611 90.4474 80.4087 90.7619C76.0013 91.3273 71.7773 90.5579 67.6969 88.9506C64.8708 87.8373 62.3503 86.1856 60.1198 84.1116C56.9557 81.1697 54.6452 77.6665 53.2657 73.5683C52.4559 71.1624 51.9987 68.6782 51.8955 66.144C51.7794 63.292 52.2808 60.514 53.0976 57.7909C54.0518 54.6092 55.6452 51.7693 57.7507 49.2103C60.6425 45.6959 64.2343 43.1608 68.4901 41.5618C71.0832 40.5875 73.7713 40.059 76.5323 39.8968C79.4702 39.7242 82.3288 40.2092 85.1313 41.0332C88.3499 41.9795 91.2631 43.531 93.8704 45.645C96.4611 47.7454 98.5048 50.2987 100.08 53.2303C101.335 55.5659 102.196 58.0485 102.651 60.655C102.924 62.219 103.054 63.8079 103.181 64.8334L103.181 64.8334ZM74.7271 68.0926V68.6416C74.7271 71.195 74.7234 73.7485 74.7285 76.3019C74.7317 77.9353 75.4102 78.9206 76.7952 79.3303C78.0771 79.7096 79.5508 79.1741 80.0709 78.0348C80.3139 77.5026 80.4334 76.8713 80.4424 76.2824C80.4815 73.7296 80.4592 71.1758 80.4592 68.6224C80.4592 68.4572 80.4592 68.292 80.4592 68.0926H80.9877C83.4491 68.0926 85.9106 68.095 88.3721 68.0897C88.6995 68.089 89.0276 68.0588 89.354 68.0271C91.6673 67.8025 92.292 65.3659 91.447 63.8471C90.8615 62.7946 89.8728 62.3968 88.7368 62.3848C86.144 62.3574 83.5507 62.3761 80.9575 62.3761H80.4592C80.4592 62.1638 80.4592 62.0078 80.4592 61.8517C80.4592 59.3904 80.4613 56.9291 80.4566 54.4678C80.456 54.14 80.4427 53.8092 80.3972 53.4851C80.2302 52.2962 79.5442 51.5471 78.415 51.1706C77.3672 50.8213 76.4642 51.1366 75.6687 51.7982C74.9364 52.4075 74.7373 53.2766 74.7322 54.1813C74.7177 56.7347 74.7275 59.2881 74.7261 61.8416C74.726 62.0074 74.7123 62.1732 74.7032 62.3761C74.5098 62.3761 74.3546 62.3761 74.1993 62.3761C71.6589 62.3761 69.1182 62.358 66.5782 62.391C66.054 62.3978 65.5004 62.518 65.0151 62.7184C63.106 63.5066 62.9194 66.0846 64.2524 67.3379C64.8742 67.9225 65.6592 68.0861 66.478 68.0891C69.0579 68.0986 71.6379 68.0926 74.2179 68.0926C74.3718 68.0926 74.5257 68.0926 74.7271 68.0926L74.7271 68.0926Z" fill="white"/>
</svg>
